<mxfile host="65bd71144e">
    <diagram id="2EEgQ54ZPE0OqOKqIdxi" name="Page-1">
        <mxGraphModel dx="661" dy="450" grid="1" gridSize="10" guides="1" tooltips="1" connect="1" arrows="1" fold="1" page="1" pageScale="1" pageWidth="827" pageHeight="1169" math="0" shadow="0">
            <root>
                <mxCell id="0"/>
                <mxCell id="1" parent="0"/>
                <mxCell id="64" value="addAsPrefect" style="shape=umlFrame;whiteSpace=wrap;html=1;width=120;height=30;boundedLbl=1;verticalAlign=middle;align=left;spacingLeft=5;labelBackgroundColor=default;fontSize=11;" vertex="1" parent="1">
                    <mxGeometry x="31" y="70" width="762.5" height="960" as="geometry"/>
                </mxCell>
                <mxCell id="5" style="edgeStyle=none;html=1;entryX=0.5;entryY=0;entryDx=0;entryDy=0;" edge="1" parent="1" source="6" target="10">
                    <mxGeometry relative="1" as="geometry"/>
                </mxCell>
                <mxCell id="6" value="this.parentElement.parentElement" style="shape=note2;boundedLbl=1;whiteSpace=wrap;html=1;size=25;verticalAlign=top;align=center;" vertex="1" parent="1">
                    <mxGeometry x="83.5" y="120" width="240" height="60" as="geometry"/>
                </mxCell>
                <mxCell id="7" value="studentDetailsWrapper" style="resizeWidth=1;part=1;strokeColor=none;fillColor=none;align=left;spacingLeft=5;" vertex="1" parent="6">
                    <mxGeometry width="240" height="25" relative="1" as="geometry"/>
                </mxCell>
                <mxCell id="8" style="edgeStyle=none;html=1;entryX=0.5;entryY=0;entryDx=0;entryDy=0;exitX=0;exitY=0;exitDx=88;exitDy=40;exitPerimeter=0;" edge="1" parent="1" source="9" target="12">
                    <mxGeometry relative="1" as="geometry">
                        <mxPoint x="433.5999999999999" y="70" as="targetPoint"/>
                        <mxPoint x="434" y="60" as="sourcePoint"/>
                    </mxGeometry>
                </mxCell>
                <mxCell id="9" value="click eventListener" style="html=1;shape=mxgraph.infographic.ribbonSimple;notch1=20;notch2=0;align=center;verticalAlign=middle;fontSize=14;fontStyle=0;flipH=1;" vertex="1" parent="1">
                    <mxGeometry x="345.5" y="10" width="176" height="40" as="geometry"/>
                </mxCell>
                <mxCell id="10" value="remove(showDetails)" style="rounded=1;whiteSpace=wrap;html=1;" vertex="1" parent="1">
                    <mxGeometry x="123.5" y="210" width="160" height="60" as="geometry"/>
                </mxCell>
                <mxCell id="11" style="edgeStyle=none;html=1;entryX=0.5;entryY=0;entryDx=0;entryDy=0;" edge="1" parent="1" source="12" target="22">
                    <mxGeometry relative="1" as="geometry">
                        <mxPoint x="433.5" y="190" as="targetPoint"/>
                    </mxGeometry>
                </mxCell>
                <mxCell id="12" value="studentArray.filter" style="html=1;align=center;verticalAlign=top;rounded=1;absoluteArcSize=1;arcSize=10;dashed=0;" vertex="1" parent="1">
                    <mxGeometry x="363.5" y="220" width="140" height="40" as="geometry"/>
                </mxCell>
                <mxCell id="19" style="edgeStyle=none;html=1;fontSize=11;entryX=0.5;entryY=0;entryDx=0;entryDy=0;" edge="1" parent="1" source="22" target="50">
                    <mxGeometry relative="1" as="geometry">
                        <mxPoint x="433.5" y="510" as="targetPoint"/>
                    </mxGeometry>
                </mxCell>
                <mxCell id="51" value="foundStudent" style="edgeLabel;html=1;align=center;verticalAlign=middle;resizable=0;points=[];" vertex="1" connectable="0" parent="19">
                    <mxGeometry x="0.1635" y="-1" relative="1" as="geometry">
                        <mxPoint as="offset"/>
                    </mxGeometry>
                </mxCell>
                <mxCell id="20" style="edgeStyle=none;html=1;fontSize=11;entryX=0;entryY=0.5;entryDx=0;entryDy=0;" edge="1" parent="1" source="22" target="39">
                    <mxGeometry relative="1" as="geometry">
                        <mxPoint x="563.5" y="413" as="targetPoint"/>
                    </mxGeometry>
                </mxCell>
                <mxCell id="21" style="edgeStyle=none;html=1;entryX=1.003;entryY=0.501;entryDx=0;entryDy=0;entryPerimeter=0;fontSize=11;dashed=1;" edge="1" parent="1" source="22" target="23">
                    <mxGeometry relative="1" as="geometry"/>
                </mxCell>
                <mxCell id="22" value="A" style="rhombus;fontSize=12;labelBackgroundColor=default;fontStyle=1" vertex="1" parent="1">
                    <mxGeometry x="371" y="350" width="125" height="125" as="geometry"/>
                </mxCell>
                <mxCell id="23" value="&lt;font style=&quot;font-size: 11px&quot;&gt;(student.firstName == firstNameField &amp;amp;&amp;amp;&lt;br&gt;student.lastName == lastNameField &amp;amp;&amp;amp;&lt;br&gt;student.isPrefect !== 1)&lt;br&gt;||&lt;br&gt;(student.firstName == firstNameField &amp;amp;&amp;amp; student.lastName == undefined &amp;amp;&amp;amp;&lt;br&gt;student.isPrefect !== 1)&lt;/font&gt;" style="shape=note2;boundedLbl=1;whiteSpace=wrap;html=1;size=25;verticalAlign=top;align=center;labelBackgroundColor=default;fontSize=13;" vertex="1" parent="1">
                    <mxGeometry x="90" y="333" width="233" height="159" as="geometry"/>
                </mxCell>
                <mxCell id="24" value="A - findClickedStudent" style="resizeWidth=1;part=1;strokeColor=none;fillColor=none;align=left;spacingLeft=5;labelBackgroundColor=default;fontSize=13;fontStyle=1;labelBorderColor=none;" vertex="1" parent="23">
                    <mxGeometry width="232.99999999999997" height="25" relative="1" as="geometry"/>
                </mxCell>
                <mxCell id="39" value="" style="ellipse;html=1;shape=endState;fillColor=#000000;strokeColor=#000000;labelBackgroundColor=default;fontSize=11;" vertex="1" parent="1">
                    <mxGeometry x="583.5" y="397.5" width="30" height="30" as="geometry"/>
                </mxCell>
                <mxCell id="40" style="edgeStyle=none;html=1;fontSize=11;entryX=0.5;entryY=0;entryDx=0;entryDy=0;" edge="1" parent="1" target="41">
                    <mxGeometry relative="1" as="geometry">
                        <mxPoint x="412.5" y="1070" as="targetPoint"/>
                        <mxPoint x="412.25" y="1030" as="sourcePoint"/>
                    </mxGeometry>
                </mxCell>
                <mxCell id="41" value="showStudents" style="rounded=1;whiteSpace=wrap;html=1;" vertex="1" parent="1">
                    <mxGeometry x="332.25" y="1080" width="160" height="60" as="geometry"/>
                </mxCell>
                <mxCell id="42" value="[else]" style="text;html=1;align=center;verticalAlign=middle;resizable=0;points=[];autosize=1;strokeColor=none;fillColor=none;fontSize=12;" vertex="1" parent="1">
                    <mxGeometry x="496" y="389.5" width="40" height="20" as="geometry"/>
                </mxCell>
                <mxCell id="43" value="[true]" style="text;html=1;align=center;verticalAlign=middle;resizable=0;points=[];autosize=1;strokeColor=none;fillColor=none;fontSize=12;" vertex="1" parent="1">
                    <mxGeometry x="440" y="475" width="40" height="20" as="geometry"/>
                </mxCell>
                <mxCell id="45" value="prefectArray.filter&lt;br&gt;prefect =&amp;gt; prefect.studentHouse == student.studentHouse" style="shape=note2;boundedLbl=1;whiteSpace=wrap;html=1;size=25;verticalAlign=top;align=center;" vertex="1" parent="1">
                    <mxGeometry x="123.5" y="684" width="160" height="105" as="geometry"/>
                </mxCell>
                <mxCell id="46" value="prefectCount" style="resizeWidth=1;part=1;strokeColor=none;fillColor=none;align=left;spacingLeft=5;" vertex="1" parent="45">
                    <mxGeometry width="160" height="25" relative="1" as="geometry"/>
                </mxCell>
                <mxCell id="47" value="prefectCount.filter&lt;br&gt;prefect =&amp;gt;&lt;br&gt;prefect.Count == student.gender" style="shape=note2;boundedLbl=1;whiteSpace=wrap;html=1;size=25;verticalAlign=top;align=center;" vertex="1" parent="1">
                    <mxGeometry x="123.5" y="809" width="160" height="105" as="geometry"/>
                </mxCell>
                <mxCell id="48" value="prefectGender" style="resizeWidth=1;part=1;strokeColor=none;fillColor=none;align=left;spacingLeft=5;" vertex="1" parent="47">
                    <mxGeometry width="160" height="25" relative="1" as="geometry"/>
                </mxCell>
                <mxCell id="60" style="edgeStyle=none;html=1;entryX=0.5;entryY=0;entryDx=0;entryDy=0;" edge="1" parent="1" source="50" target="61">
                    <mxGeometry relative="1" as="geometry">
                        <mxPoint x="433.5" y="760" as="targetPoint"/>
                    </mxGeometry>
                </mxCell>
                <mxCell id="50" value="B" style="rhombus;fontSize=12;labelBackgroundColor=default;fontStyle=1" vertex="1" parent="1">
                    <mxGeometry x="371" y="560" width="125" height="125" as="geometry"/>
                </mxCell>
                <mxCell id="52" value="&lt;span style=&quot;font-size: 11px&quot;&gt;prefectCount.length &amp;lt; &quot;2&quot; &lt;br&gt;&amp;amp;&amp;amp;&lt;br&gt;prefectGender.length &amp;lt; &quot;1&quot;&lt;/span&gt;" style="shape=note2;boundedLbl=1;whiteSpace=wrap;html=1;size=25;verticalAlign=top;align=center;labelBackgroundColor=default;fontSize=13;" vertex="1" parent="1">
                    <mxGeometry x="90" y="570" width="230" height="94" as="geometry"/>
                </mxCell>
                <mxCell id="53" value="B - check amount of prefects" style="resizeWidth=1;part=1;strokeColor=none;fillColor=none;align=left;spacingLeft=5;labelBackgroundColor=default;fontSize=13;fontStyle=1;labelBorderColor=none;" vertex="1" parent="52">
                    <mxGeometry width="229.99999999999994" height="25" relative="1" as="geometry"/>
                </mxCell>
                <mxCell id="54" style="edgeStyle=none;html=1;entryX=1.001;entryY=0.557;entryDx=0;entryDy=0;entryPerimeter=0;fontSize=11;dashed=1;exitX=0;exitY=0.5;exitDx=0;exitDy=0;" edge="1" parent="1" source="50" target="52">
                    <mxGeometry relative="1" as="geometry">
                        <mxPoint x="381.0903737722808" y="422.59037377228094" as="sourcePoint"/>
                        <mxPoint x="333.69899999999984" y="422.659" as="targetPoint"/>
                    </mxGeometry>
                </mxCell>
                <mxCell id="55" value="[true]" style="text;html=1;align=center;verticalAlign=middle;resizable=0;points=[];autosize=1;strokeColor=none;fillColor=none;fontSize=12;" vertex="1" parent="1">
                    <mxGeometry x="440" y="685" width="40" height="20" as="geometry"/>
                </mxCell>
                <mxCell id="56" style="edgeStyle=none;html=1;fontSize=11;entryX=0;entryY=0.5;entryDx=0;entryDy=0;exitX=1;exitY=0.5;exitDx=0;exitDy=0;" edge="1" parent="1" target="59" source="50">
                    <mxGeometry relative="1" as="geometry">
                        <mxPoint x="583.5" y="622.5" as="targetPoint"/>
                        <mxPoint x="500" y="640" as="sourcePoint"/>
                    </mxGeometry>
                </mxCell>
                <mxCell id="58" value="[else]" style="text;html=1;align=center;verticalAlign=middle;resizable=0;points=[];autosize=1;strokeColor=none;fillColor=none;fontSize=12;" vertex="1" parent="1">
                    <mxGeometry x="496" y="600" width="40" height="20" as="geometry"/>
                </mxCell>
                <mxCell id="59" value="tooManyPrefect in student.studentHouse" style="rounded=1;whiteSpace=wrap;html=1;" vertex="1" parent="1">
                    <mxGeometry x="590" y="592.5" width="160" height="60" as="geometry"/>
                </mxCell>
                <mxCell id="63" style="edgeStyle=none;html=1;entryX=0.5;entryY=1.001;entryDx=0;entryDy=0;entryPerimeter=0;" edge="1" parent="1" source="61" target="64">
                    <mxGeometry relative="1" as="geometry">
                        <mxPoint x="433.5" y="860" as="targetPoint"/>
                        <Array as="points">
                            <mxPoint x="434" y="930"/>
                            <mxPoint x="412" y="930"/>
                        </Array>
                    </mxGeometry>
                </mxCell>
                <mxCell id="61" value="student.isPrefect = 1&lt;br&gt;prefectArray.push(student)" style="rounded=1;whiteSpace=wrap;html=1;" vertex="1" parent="1">
                    <mxGeometry x="353.5" y="770" width="160" height="60" as="geometry"/>
                </mxCell>
            </root>
        </mxGraphModel>
    </diagram>
</mxfile>